<svg id="visual" viewBox="0 0 900 600" width="900" height="600" xmlns="http://www.w3.org/2000/svg" xmlns:xlink="http://www.w3.org/1999/xlink" version="1.1"><rect x="0" y="0" width="900" height="600" fill="#333"></rect><path d="M0 355L8.8 361.7C17.7 368.3 35.3 381.7 53 376.3C70.7 371 88.3 347 106 338.5C123.7 330 141.3 337 159 333.3C176.7 329.7 194.3 315.3 212 320.5C229.7 325.7 247.3 350.3 265 359C282.7 367.7 300.3 360.3 318 349.7C335.7 339 353.3 325 371 341.3C388.7 357.7 406.3 404.3 423.8 411.5C441.3 418.7 458.7 386.3 476.2 384C493.7 381.7 511.3 409.3 529 402.2C546.7 395 564.3 353 582 332.7C599.7 312.3 617.3 313.7 635 317.3C652.7 321 670.3 327 688 334C705.7 341 723.3 349 741 347.8C758.7 346.7 776.3 336.3 794 345.3C811.7 354.3 829.3 382.7 847 379.7C864.7 376.7 882.3 342.3 891.2 325.2L900 308L900 601L891.2 601C882.3 601 864.7 601 847 601C829.3 601 811.7 601 794 601C776.3 601 758.7 601 741 601C723.3 601 705.7 601 688 601C670.3 601 652.7 601 635 601C617.3 601 599.7 601 582 601C564.3 601 546.7 601 529 601C511.3 601 493.7 601 476.2 601C458.7 601 441.3 601 423.8 601C406.3 601 388.7 601 371 601C353.3 601 335.7 601 318 601C300.3 601 282.7 601 265 601C247.3 601 229.7 601 212 601C194.3 601 176.7 601 159 601C141.3 601 123.7 601 106 601C88.3 601 70.7 601 53 601C35.3 601 17.7 601 8.8 601L0 601Z" fill="#888277"></path><path d="M0 367L8.8 379.8C17.7 392.7 35.3 418.3 53 415.2C70.7 412 88.3 380 106 375.3C123.7 370.7 141.3 393.3 159 405C176.7 416.7 194.3 417.3 212 422.2C229.7 427 247.3 436 265 433.8C282.7 431.7 300.3 418.3 318 412.7C335.7 407 353.3 409 371 406.8C388.7 404.7 406.3 398.3 423.8 408C441.3 417.7 458.7 443.3 476.2 434.5C493.7 425.7 511.3 382.3 529 361C546.7 339.7 564.3 340.3 582 357.3C599.7 374.3 617.3 407.7 635 409.7C652.7 411.7 670.3 382.3 688 380C705.7 377.7 723.3 402.3 741 403.2C758.7 404 776.3 381 794 388.2C811.7 395.3 829.3 432.7 847 432.2C864.7 431.7 882.3 393.3 891.2 374.2L900 355L900 601L891.2 601C882.3 601 864.7 601 847 601C829.3 601 811.7 601 794 601C776.3 601 758.7 601 741 601C723.3 601 705.7 601 688 601C670.3 601 652.7 601 635 601C617.3 601 599.7 601 582 601C564.3 601 546.7 601 529 601C511.3 601 493.7 601 476.2 601C458.7 601 441.3 601 423.8 601C406.3 601 388.7 601 371 601C353.3 601 335.7 601 318 601C300.3 601 282.7 601 265 601C247.3 601 229.7 601 212 601C194.3 601 176.7 601 159 601C141.3 601 123.7 601 106 601C88.3 601 70.7 601 53 601C35.3 601 17.7 601 8.8 601L0 601Z" fill="#938e84"></path><path d="M0 460L8.8 459.3C17.7 458.7 35.3 457.3 53 446.8C70.7 436.3 88.3 416.7 106 423.3C123.7 430 141.3 463 159 469.3C176.7 475.7 194.3 455.3 212 454.8C229.7 454.3 247.3 473.7 265 476.2C282.7 478.7 300.3 464.3 318 454.3C335.7 444.3 353.3 438.7 371 439.8C388.7 441 406.3 449 423.8 441.8C441.3 434.7 458.7 412.3 476.2 418C493.7 423.7 511.3 457.3 529 459.7C546.7 462 564.3 433 582 421.3C599.7 409.7 617.3 415.3 635 428.8C652.7 442.3 670.3 463.7 688 469C705.7 474.3 723.3 463.7 741 457.2C758.7 450.7 776.3 448.3 794 451.5C811.7 454.7 829.3 463.3 847 459.3C864.7 455.3 882.3 438.7 891.2 430.3L900 422L900 601L891.2 601C882.3 601 864.7 601 847 601C829.3 601 811.7 601 794 601C776.3 601 758.7 601 741 601C723.3 601 705.7 601 688 601C670.3 601 652.7 601 635 601C617.3 601 599.7 601 582 601C564.3 601 546.7 601 529 601C511.3 601 493.7 601 476.2 601C458.7 601 441.3 601 423.8 601C406.3 601 388.7 601 371 601C353.3 601 335.7 601 318 601C300.3 601 282.7 601 265 601C247.3 601 229.7 601 212 601C194.3 601 176.7 601 159 601C141.3 601 123.7 601 106 601C88.3 601 70.7 601 53 601C35.3 601 17.7 601 8.8 601L0 601Z" fill="#9f9a92"></path><path d="M0 475L8.8 477.7C17.7 480.3 35.3 485.7 53 481.8C70.7 478 88.3 465 106 467C123.7 469 141.3 486 159 479.3C176.7 472.7 194.3 442.3 212 436.3C229.7 430.3 247.3 448.7 265 448.8C282.7 449 300.3 431 318 435.8C335.7 440.7 353.3 468.3 371 481.5C388.7 494.7 406.3 493.3 423.8 489C441.3 484.7 458.7 477.3 476.2 471.3C493.7 465.3 511.3 460.7 529 450.8C546.7 441 564.3 426 582 436C599.7 446 617.3 481 635 492.7C652.7 504.3 670.3 492.7 688 480.5C705.7 468.3 723.3 455.7 741 448.5C758.7 441.3 776.3 439.7 794 445.5C811.7 451.3 829.3 464.7 847 474.3C864.7 484 882.3 490 891.2 493L900 496L900 601L891.2 601C882.3 601 864.7 601 847 601C829.3 601 811.7 601 794 601C776.3 601 758.7 601 741 601C723.3 601 705.7 601 688 601C670.3 601 652.7 601 635 601C617.3 601 599.7 601 582 601C564.3 601 546.7 601 529 601C511.3 601 493.7 601 476.2 601C458.7 601 441.3 601 423.8 601C406.3 601 388.7 601 371 601C353.3 601 335.7 601 318 601C300.3 601 282.7 601 265 601C247.3 601 229.7 601 212 601C194.3 601 176.7 601 159 601C141.3 601 123.7 601 106 601C88.3 601 70.7 601 53 601C35.3 601 17.7 601 8.8 601L0 601Z" fill="#aaa6a0"></path><path d="M0 509L8.8 506.7C17.7 504.3 35.3 499.7 53 503.3C70.7 507 88.3 519 106 519.3C123.7 519.7 141.3 508.3 159 505.2C176.7 502 194.3 507 212 513.2C229.7 519.3 247.3 526.7 265 530.8C282.7 535 300.3 536 318 534.7C335.7 533.3 353.3 529.7 371 515.8C388.7 502 406.3 478 423.8 479.2C441.3 480.3 458.7 506.7 476.2 514.2C493.7 521.7 511.3 510.3 529 503.3C546.7 496.3 564.3 493.7 582 498.8C599.7 504 617.3 517 635 516.5C652.7 516 670.3 502 688 494.2C705.7 486.3 723.3 484.7 741 488.8C758.7 493 776.3 503 794 509.5C811.7 516 829.3 519 847 515C864.7 511 882.3 500 891.2 494.5L900 489L900 601L891.2 601C882.3 601 864.7 601 847 601C829.3 601 811.7 601 794 601C776.3 601 758.7 601 741 601C723.3 601 705.7 601 688 601C670.3 601 652.7 601 635 601C617.3 601 599.7 601 582 601C564.3 601 546.7 601 529 601C511.3 601 493.7 601 476.2 601C458.7 601 441.3 601 423.8 601C406.3 601 388.7 601 371 601C353.3 601 335.7 601 318 601C300.3 601 282.7 601 265 601C247.3 601 229.7 601 212 601C194.3 601 176.7 601 159 601C141.3 601 123.7 601 106 601C88.3 601 70.7 601 53 601C35.3 601 17.7 601 8.8 601L0 601Z" fill="#b5b3ae"></path><path d="M0 510L8.8 510C17.7 510 35.3 510 53 516.8C70.7 523.7 88.3 537.3 106 543.5C123.7 549.7 141.3 548.3 159 547.8C176.7 547.3 194.3 547.7 212 548.7C229.7 549.7 247.3 551.3 265 544.8C282.7 538.3 300.3 523.7 318 517.7C335.7 511.7 353.3 514.3 371 518.3C388.7 522.3 406.3 527.7 423.8 530.7C441.3 533.7 458.7 534.3 476.2 531.8C493.7 529.3 511.3 523.7 529 518.5C546.7 513.3 564.3 508.7 582 514.8C599.7 521 617.3 538 635 541.7C652.7 545.3 670.3 535.7 688 534.3C705.7 533 723.3 540 741 537.7C758.7 535.3 776.3 523.7 794 517C811.7 510.3 829.3 508.7 847 515.5C864.7 522.3 882.3 537.7 891.2 545.3L900 553L900 601L891.2 601C882.3 601 864.7 601 847 601C829.3 601 811.7 601 794 601C776.3 601 758.7 601 741 601C723.3 601 705.7 601 688 601C670.3 601 652.7 601 635 601C617.3 601 599.7 601 582 601C564.3 601 546.7 601 529 601C511.3 601 493.7 601 476.2 601C458.7 601 441.3 601 423.8 601C406.3 601 388.7 601 371 601C353.3 601 335.7 601 318 601C300.3 601 282.7 601 265 601C247.3 601 229.7 601 212 601C194.3 601 176.7 601 159 601C141.3 601 123.7 601 106 601C88.3 601 70.7 601 53 601C35.3 601 17.7 601 8.8 601L0 601Z" fill="#c1bfbd"></path><path d="M0 546L8.8 545C17.7 544 35.3 542 53 545.8C70.7 549.7 88.3 559.3 106 559.8C123.7 560.3 141.3 551.7 159 546.7C176.7 541.7 194.3 540.3 212 538.2C229.7 536 247.3 533 265 539.2C282.7 545.3 300.3 560.7 318 563.2C335.7 565.7 353.3 555.3 371 555.7C388.7 556 406.3 567 423.8 565.5C441.3 564 458.7 550 476.2 545.3C493.7 540.7 511.3 545.3 529 550.8C546.7 556.3 564.3 562.7 582 561.3C599.7 560 617.3 551 635 551.7C652.7 552.3 670.3 562.7 688 565.3C705.7 568 723.3 563 741 556.8C758.7 550.7 776.3 543.3 794 545.5C811.7 547.7 829.3 559.3 847 562.8C864.7 566.3 882.3 561.7 891.2 559.3L900 557L900 601L891.2 601C882.3 601 864.7 601 847 601C829.3 601 811.7 601 794 601C776.3 601 758.7 601 741 601C723.3 601 705.7 601 688 601C670.3 601 652.7 601 635 601C617.3 601 599.7 601 582 601C564.3 601 546.7 601 529 601C511.3 601 493.7 601 476.2 601C458.7 601 441.3 601 423.8 601C406.3 601 388.7 601 371 601C353.3 601 335.7 601 318 601C300.3 601 282.7 601 265 601C247.3 601 229.7 601 212 601C194.3 601 176.7 601 159 601C141.3 601 123.7 601 106 601C88.3 601 70.7 601 53 601C35.3 601 17.7 601 8.8 601L0 601Z" fill="#cccccc"></path></svg>