<svg id="visual" viewBox="0 0 900 600" width="900" height="600" xmlns="http://www.w3.org/2000/svg" xmlns:xlink="http://www.w3.org/1999/xlink" version="1.1"><rect x="0" y="0" width="900" height="600" fill="#333"></rect><path d="M0 436L8.8 440.5C17.7 445 35.3 454 53 450.5C70.7 447 88.3 431 106 425.3C123.7 419.7 141.3 424.3 159 421.8C176.7 419.3 194.3 409.7 212 413.2C229.7 416.7 247.3 433.3 265 439.2C282.7 445 300.3 440 318 432.8C335.7 425.7 353.3 416.3 371 427.3C388.7 438.3 406.3 469.7 423.8 474.3C441.3 479 458.7 457 476.2 455.3C493.7 453.7 511.3 472.3 529 467.7C546.7 463 564.3 435 582 421.5C599.7 408 617.3 409 635 411.5C652.7 414 670.3 418 688 422.5C705.7 427 723.3 432 741 431.2C758.7 430.3 776.3 423.7 794 429.7C811.7 435.7 829.3 454.3 847 452.3C864.7 450.3 882.3 427.7 891.2 416.3L900 405L900 601L891.2 601C882.3 601 864.7 601 847 601C829.3 601 811.7 601 794 601C776.3 601 758.7 601 741 601C723.3 601 705.7 601 688 601C670.3 601 652.7 601 635 601C617.3 601 599.7 601 582 601C564.3 601 546.7 601 529 601C511.3 601 493.7 601 476.2 601C458.7 601 441.3 601 423.8 601C406.3 601 388.7 601 371 601C353.3 601 335.7 601 318 601C300.3 601 282.7 601 265 601C247.3 601 229.7 601 212 601C194.3 601 176.7 601 159 601C141.3 601 123.7 601 106 601C88.3 601 70.7 601 53 601C35.3 601 17.7 601 8.8 601L0 601Z" fill="#888277"></path><path d="M0 444L8.8 452.7C17.7 461.3 35.3 478.7 53 476.7C70.7 474.7 88.3 453.3 106 450.2C123.7 447 141.3 462 159 469.7C176.7 477.3 194.3 477.7 212 481C229.7 484.3 247.3 490.7 265 489.2C282.7 487.7 300.3 478.3 318 474.3C335.7 470.3 353.3 471.7 371 470.3C388.7 469 406.3 465 423.8 471.7C441.3 478.3 458.7 495.7 476.2 489.8C493.7 484 511.3 455 529 440.7C546.7 426.3 564.3 426.7 582 438C599.7 449.3 617.3 471.7 635 473C652.7 474.3 670.3 454.7 688 453C705.7 451.3 723.3 467.7 741 468.2C758.7 468.7 776.3 453.3 794 458.2C811.7 463 829.3 488 847 487.7C864.7 487.3 882.3 461.7 891.2 448.8L900 436L900 601L891.2 601C882.3 601 864.7 601 847 601C829.3 601 811.7 601 794 601C776.3 601 758.7 601 741 601C723.3 601 705.7 601 688 601C670.3 601 652.7 601 635 601C617.3 601 599.7 601 582 601C564.3 601 546.7 601 529 601C511.3 601 493.7 601 476.2 601C458.7 601 441.3 601 423.8 601C406.3 601 388.7 601 371 601C353.3 601 335.7 601 318 601C300.3 601 282.7 601 265 601C247.3 601 229.7 601 212 601C194.3 601 176.7 601 159 601C141.3 601 123.7 601 106 601C88.3 601 70.7 601 53 601C35.3 601 17.7 601 8.8 601L0 601Z" fill="#938e84"></path><path d="M0 506L8.8 505.7C17.7 505.3 35.3 504.7 53 497.7C70.7 490.7 88.3 477.3 106 481.7C123.7 486 141.3 508 159 512.3C176.7 516.7 194.3 503.3 212 503C229.7 502.7 247.3 515.3 265 516.8C282.7 518.3 300.3 508.7 318 502.2C335.7 495.7 353.3 492.3 371 493.2C388.7 494 406.3 499 423.8 494C441.3 489 458.7 474 476.2 477.8C493.7 481.7 511.3 504.3 529 506C546.7 507.7 564.3 488.3 582 480.7C599.7 473 617.3 477 635 486C652.7 495 670.3 509 688 512.5C705.7 516 723.3 509 741 504.7C758.7 500.3 776.3 498.7 794 500.7C811.7 502.7 829.3 508.3 847 505.7C864.7 503 882.3 492 891.2 486.5L900 481L900 601L891.2 601C882.3 601 864.7 601 847 601C829.3 601 811.7 601 794 601C776.3 601 758.7 601 741 601C723.3 601 705.7 601 688 601C670.3 601 652.7 601 635 601C617.3 601 599.7 601 582 601C564.3 601 546.7 601 529 601C511.3 601 493.7 601 476.2 601C458.7 601 441.3 601 423.8 601C406.3 601 388.7 601 371 601C353.3 601 335.7 601 318 601C300.3 601 282.7 601 265 601C247.3 601 229.7 601 212 601C194.3 601 176.7 601 159 601C141.3 601 123.7 601 106 601C88.3 601 70.7 601 53 601C35.3 601 17.7 601 8.8 601L0 601Z" fill="#9f9a92"></path><path d="M0 517L8.8 518.7C17.7 520.3 35.3 523.7 53 521C70.7 518.3 88.3 509.7 106 511C123.7 512.3 141.3 523.7 159 519.2C176.7 514.7 194.3 494.3 212 490.3C229.7 486.3 247.3 498.7 265 498.8C282.7 499 300.3 487 318 490.3C335.7 493.7 353.3 512.3 371 521C388.7 529.7 406.3 528.3 423.8 525.3C441.3 522.3 458.7 517.7 476.2 513.8C493.7 510 511.3 507 529 500.5C546.7 494 564.3 484 582 490.7C599.7 497.3 617.3 520.7 635 528.3C652.7 536 670.3 528 688 519.8C705.7 511.7 723.3 503.3 741 498.7C758.7 494 776.3 493 794 496.8C811.7 500.7 829.3 509.3 847 515.8C864.7 522.3 882.3 526.7 891.2 528.8L900 531L900 601L891.2 601C882.3 601 864.7 601 847 601C829.3 601 811.7 601 794 601C776.3 601 758.7 601 741 601C723.3 601 705.7 601 688 601C670.3 601 652.7 601 635 601C617.3 601 599.7 601 582 601C564.3 601 546.7 601 529 601C511.3 601 493.7 601 476.2 601C458.7 601 441.3 601 423.8 601C406.3 601 388.7 601 371 601C353.3 601 335.7 601 318 601C300.3 601 282.7 601 265 601C247.3 601 229.7 601 212 601C194.3 601 176.7 601 159 601C141.3 601 123.7 601 106 601C88.3 601 70.7 601 53 601C35.3 601 17.7 601 8.8 601L0 601Z" fill="#aaa6a0"></path><path d="M0 539L8.8 537.3C17.7 535.7 35.3 532.3 53 534.8C70.7 537.3 88.3 545.7 106 546C123.7 546.3 141.3 538.7 159 536.5C176.7 534.3 194.3 537.7 212 541.8C229.7 546 247.3 551 265 553.8C282.7 556.7 300.3 557.3 318 556.3C335.7 555.3 353.3 552.7 371 543.3C388.7 534 406.3 518 423.8 518.8C441.3 519.7 458.7 537.3 476.2 542.3C493.7 547.3 511.3 539.7 529 535C546.7 530.3 564.3 528.7 582 532.2C599.7 535.7 617.3 544.3 635 544C652.7 543.7 670.3 534.3 688 529C705.7 523.7 723.3 522.3 741 525.2C758.7 528 776.3 535 794 539.3C811.7 543.7 829.3 545.3 847 542.7C864.7 540 882.3 533 891.2 529.5L900 526L900 601L891.2 601C882.3 601 864.7 601 847 601C829.3 601 811.7 601 794 601C776.3 601 758.7 601 741 601C723.3 601 705.7 601 688 601C670.3 601 652.7 601 635 601C617.3 601 599.7 601 582 601C564.3 601 546.7 601 529 601C511.3 601 493.7 601 476.2 601C458.7 601 441.3 601 423.8 601C406.3 601 388.7 601 371 601C353.3 601 335.7 601 318 601C300.3 601 282.7 601 265 601C247.3 601 229.7 601 212 601C194.3 601 176.7 601 159 601C141.3 601 123.7 601 106 601C88.3 601 70.7 601 53 601C35.3 601 17.7 601 8.8 601L0 601Z" fill="#b5b3ae"></path><path d="M0 540L8.8 540C17.7 540 35.3 540 53 544.5C70.7 549 88.3 558 106 562.2C123.7 566.3 141.3 565.7 159 565.3C176.7 565 194.3 565 212 565.7C229.7 566.3 247.3 567.7 265 563.3C282.7 559 300.3 549 318 544.8C335.7 540.7 353.3 542.3 371 545C388.7 547.7 406.3 551.3 423.8 553.3C441.3 555.3 458.7 555.7 476.2 554C493.7 552.3 511.3 548.7 529 545.3C546.7 542 564.3 539 582 543.2C599.7 547.3 617.3 558.7 635 561.2C652.7 563.7 670.3 557.3 688 556.3C705.7 555.3 723.3 559.7 741 558C758.7 556.3 776.3 548.7 794 544.3C811.7 540 829.3 539 847 543.7C864.7 548.3 882.3 558.7 891.2 563.8L900 569L900 601L891.2 601C882.3 601 864.7 601 847 601C829.3 601 811.7 601 794 601C776.3 601 758.7 601 741 601C723.3 601 705.7 601 688 601C670.3 601 652.7 601 635 601C617.3 601 599.7 601 582 601C564.3 601 546.7 601 529 601C511.3 601 493.7 601 476.2 601C458.7 601 441.3 601 423.8 601C406.3 601 388.7 601 371 601C353.3 601 335.7 601 318 601C300.3 601 282.7 601 265 601C247.3 601 229.7 601 212 601C194.3 601 176.7 601 159 601C141.3 601 123.7 601 106 601C88.3 601 70.7 601 53 601C35.3 601 17.7 601 8.8 601L0 601Z" fill="#c1bfbd"></path><path d="M0 564L8.8 563.3C17.7 562.7 35.3 561.3 53 563.8C70.7 566.3 88.3 572.7 106 573C123.7 573.3 141.3 567.7 159 564.3C176.7 561 194.3 560 212 558.5C229.7 557 247.3 555 265 559.2C282.7 563.3 300.3 573.7 318 575.3C335.7 577 353.3 570 371 570.2C388.7 570.3 406.3 577.7 423.8 576.7C441.3 575.7 458.7 566.3 476.2 563.2C493.7 560 511.3 563 529 566.7C546.7 570.3 564.3 574.7 582 573.8C599.7 573 617.3 567 635 567.5C652.7 568 670.3 575 688 576.8C705.7 578.7 723.3 575.3 741 571.2C758.7 567 776.3 562 794 563.3C811.7 564.7 829.3 572.3 847 574.7C864.7 577 882.3 574 891.2 572.5L900 571L900 601L891.2 601C882.3 601 864.7 601 847 601C829.3 601 811.7 601 794 601C776.3 601 758.7 601 741 601C723.3 601 705.7 601 688 601C670.3 601 652.7 601 635 601C617.3 601 599.7 601 582 601C564.3 601 546.7 601 529 601C511.3 601 493.7 601 476.2 601C458.7 601 441.3 601 423.8 601C406.3 601 388.7 601 371 601C353.3 601 335.7 601 318 601C300.3 601 282.7 601 265 601C247.3 601 229.7 601 212 601C194.3 601 176.7 601 159 601C141.3 601 123.7 601 106 601C88.3 601 70.7 601 53 601C35.3 601 17.7 601 8.8 601L0 601Z" fill="#cccccc"></path></svg>