<svg id="visual" viewBox="0 0 900 600" width="900" height="600" xmlns="http://www.w3.org/2000/svg" xmlns:xlink="http://www.w3.org/1999/xlink" version="1.1"><rect x="0" y="0" width="900" height="600" fill="#333"></rect><path d="M0 233L8.8 243C17.7 253 35.3 273 53 265C70.7 257 88.3 221 106 208.3C123.7 195.7 141.3 206.3 159 200.8C176.7 195.3 194.3 173.7 212 181.5C229.7 189.3 247.3 226.7 265 239.7C282.7 252.7 300.3 241.3 318 225.2C335.7 209 353.3 188 371 212.5C388.7 237 406.3 307 423.8 317.7C441.3 328.3 458.7 279.7 476.2 276.2C493.7 272.7 511.3 314.3 529 303.7C546.7 293 564.3 230 582 199.5C599.7 169 617.3 171 635 176.5C652.7 182 670.3 191 688 201.3C705.7 211.7 723.3 223.3 741 221.5C758.7 219.7 776.3 204.3 794 218C811.7 231.7 829.3 274.3 847 270C864.7 265.7 882.3 214.3 891.2 188.7L900 163L900 601L891.2 601C882.3 601 864.7 601 847 601C829.3 601 811.7 601 794 601C776.3 601 758.7 601 741 601C723.3 601 705.7 601 688 601C670.3 601 652.7 601 635 601C617.3 601 599.7 601 582 601C564.3 601 546.7 601 529 601C511.3 601 493.7 601 476.2 601C458.7 601 441.3 601 423.8 601C406.3 601 388.7 601 371 601C353.3 601 335.7 601 318 601C300.3 601 282.7 601 265 601C247.3 601 229.7 601 212 601C194.3 601 176.7 601 159 601C141.3 601 123.7 601 106 601C88.3 601 70.7 601 53 601C35.3 601 17.7 601 8.8 601L0 601Z" fill="#888277"></path><path d="M0 250L8.8 269.5C17.7 289 35.3 328 53 323.5C70.7 319 88.3 271 106 264C123.7 257 141.3 291 159 308.3C176.7 325.7 194.3 326.3 212 333.5C229.7 340.7 247.3 354.3 265 351C282.7 347.7 300.3 327.3 318 318.7C335.7 310 353.3 313 371 310C388.7 307 406.3 298 423.8 312.7C441.3 327.3 458.7 365.7 476.2 352.3C493.7 339 511.3 274 529 241.8C546.7 209.7 564.3 210.3 582 235.8C599.7 261.3 617.3 311.7 635 314.8C652.7 318 670.3 274 688 270.5C705.7 267 723.3 304 741 305.2C758.7 306.3 776.3 271.7 794 282.3C811.7 293 829.3 349 847 348.3C864.7 347.7 882.3 290.3 891.2 261.7L900 233L900 601L891.2 601C882.3 601 864.7 601 847 601C829.3 601 811.7 601 794 601C776.3 601 758.7 601 741 601C723.3 601 705.7 601 688 601C670.3 601 652.7 601 635 601C617.3 601 599.7 601 582 601C564.3 601 546.7 601 529 601C511.3 601 493.7 601 476.2 601C458.7 601 441.3 601 423.8 601C406.3 601 388.7 601 371 601C353.3 601 335.7 601 318 601C300.3 601 282.7 601 265 601C247.3 601 229.7 601 212 601C194.3 601 176.7 601 159 601C141.3 601 123.7 601 106 601C88.3 601 70.7 601 53 601C35.3 601 17.7 601 8.8 601L0 601Z" fill="#938e84"></path><path d="M0 390L8.8 389C17.7 388 35.3 386 53 370.2C70.7 354.3 88.3 324.7 106 334.7C123.7 344.7 141.3 394.3 159 404C176.7 413.7 194.3 383.3 212 382.7C229.7 382 247.3 411 265 414.7C282.7 418.3 300.3 396.7 318 381.8C335.7 367 353.3 359 371 360.8C388.7 362.7 406.3 374.3 423.8 363.3C441.3 352.3 458.7 318.7 476.2 327.2C493.7 335.7 511.3 386.3 529 389.8C546.7 393.3 564.3 349.7 582 332.2C599.7 314.7 617.3 323.3 635 343.5C652.7 363.7 670.3 395.3 688 403.3C705.7 411.3 723.3 395.7 741 386C758.7 376.3 776.3 372.7 794 377.3C811.7 382 829.3 395 847 389C864.7 383 882.3 358 891.2 345.5L900 333L900 601L891.2 601C882.3 601 864.7 601 847 601C829.3 601 811.7 601 794 601C776.3 601 758.7 601 741 601C723.3 601 705.7 601 688 601C670.3 601 652.7 601 635 601C617.3 601 599.7 601 582 601C564.3 601 546.7 601 529 601C511.3 601 493.7 601 476.2 601C458.7 601 441.3 601 423.8 601C406.3 601 388.7 601 371 601C353.3 601 335.7 601 318 601C300.3 601 282.7 601 265 601C247.3 601 229.7 601 212 601C194.3 601 176.7 601 159 601C141.3 601 123.7 601 106 601C88.3 601 70.7 601 53 601C35.3 601 17.7 601 8.8 601L0 601Z" fill="#9f9a92"></path><path d="M0 414L8.8 417.8C17.7 421.7 35.3 429.3 53 423.3C70.7 417.3 88.3 397.7 106 400.5C123.7 403.3 141.3 428.7 159 418.7C176.7 408.7 194.3 363.3 212 354.5C229.7 345.7 247.3 373.3 265 373.5C282.7 373.7 300.3 346.3 318 353.7C335.7 361 353.3 403 371 422.8C388.7 442.7 406.3 440.3 423.8 433.8C441.3 427.3 458.7 416.7 476.2 407.8C493.7 399 511.3 392 529 377.2C546.7 362.3 564.3 339.7 582 354.7C599.7 369.7 617.3 422.3 635 439.7C652.7 457 670.3 439 688 420.7C705.7 402.3 723.3 383.7 741 373C758.7 362.3 776.3 359.7 794 368.3C811.7 377 829.3 397 847 411.7C864.7 426.3 882.3 435.7 891.2 440.3L900 445L900 601L891.2 601C882.3 601 864.7 601 847 601C829.3 601 811.7 601 794 601C776.3 601 758.7 601 741 601C723.3 601 705.7 601 688 601C670.3 601 652.7 601 635 601C617.3 601 599.7 601 582 601C564.3 601 546.7 601 529 601C511.3 601 493.7 601 476.2 601C458.7 601 441.3 601 423.8 601C406.3 601 388.7 601 371 601C353.3 601 335.7 601 318 601C300.3 601 282.7 601 265 601C247.3 601 229.7 601 212 601C194.3 601 176.7 601 159 601C141.3 601 123.7 601 106 601C88.3 601 70.7 601 53 601C35.3 601 17.7 601 8.8 601L0 601Z" fill="#aaa6a0"></path><path d="M0 464L8.8 460.3C17.7 456.7 35.3 449.3 53 454.8C70.7 460.3 88.3 478.7 106 479.2C123.7 479.7 141.3 462.3 159 457.5C176.7 452.7 194.3 460.3 212 469.8C229.7 479.3 247.3 490.7 265 497C282.7 503.3 300.3 504.7 318 502.5C335.7 500.3 353.3 494.7 371 474C388.7 453.3 406.3 417.7 423.8 419.5C441.3 421.3 458.7 460.7 476.2 471.7C493.7 482.7 511.3 465.3 529 454.8C546.7 444.3 564.3 440.7 582 448.7C599.7 456.7 617.3 476.3 635 475.7C652.7 475 670.3 454 688 442C705.7 430 723.3 427 741 433.2C758.7 439.3 776.3 454.7 794 464.5C811.7 474.3 829.3 478.7 847 472.8C864.7 467 882.3 451 891.2 443L900 435L900 601L891.2 601C882.3 601 864.7 601 847 601C829.3 601 811.7 601 794 601C776.3 601 758.7 601 741 601C723.3 601 705.7 601 688 601C670.3 601 652.7 601 635 601C617.3 601 599.7 601 582 601C564.3 601 546.7 601 529 601C511.3 601 493.7 601 476.2 601C458.7 601 441.3 601 423.8 601C406.3 601 388.7 601 371 601C353.3 601 335.7 601 318 601C300.3 601 282.7 601 265 601C247.3 601 229.7 601 212 601C194.3 601 176.7 601 159 601C141.3 601 123.7 601 106 601C88.3 601 70.7 601 53 601C35.3 601 17.7 601 8.8 601L0 601Z" fill="#b5b3ae"></path><path d="M0 466L8.8 466C17.7 466 35.3 466 53 476.2C70.7 486.3 88.3 506.7 106 516C123.7 525.3 141.3 523.7 159 522.8C176.7 522 194.3 522 212 523.5C229.7 525 247.3 528 265 518.3C282.7 508.7 300.3 486.3 318 477C335.7 467.7 353.3 471.3 371 477.3C388.7 483.3 406.3 491.7 423.8 496.3C441.3 501 458.7 502 476.2 498.2C493.7 494.3 511.3 485.7 529 477.8C546.7 470 564.3 463 582 472.5C599.7 482 617.3 508 635 513.7C652.7 519.3 670.3 504.7 688 502.5C705.7 500.3 723.3 510.7 741 507C758.7 503.3 776.3 485.7 794 475.7C811.7 465.7 829.3 463.3 847 473.7C864.7 484 882.3 507 891.2 518.5L900 530L900 601L891.2 601C882.3 601 864.7 601 847 601C829.3 601 811.7 601 794 601C776.3 601 758.7 601 741 601C723.3 601 705.7 601 688 601C670.3 601 652.7 601 635 601C617.3 601 599.7 601 582 601C564.3 601 546.7 601 529 601C511.3 601 493.7 601 476.2 601C458.7 601 441.3 601 423.8 601C406.3 601 388.7 601 371 601C353.3 601 335.7 601 318 601C300.3 601 282.7 601 265 601C247.3 601 229.7 601 212 601C194.3 601 176.7 601 159 601C141.3 601 123.7 601 106 601C88.3 601 70.7 601 53 601C35.3 601 17.7 601 8.8 601L0 601Z" fill="#c1bfbd"></path><path d="M0 519L8.8 517.7C17.7 516.3 35.3 513.7 53 519.5C70.7 525.3 88.3 539.7 106 540.3C123.7 541 141.3 528 159 520.5C176.7 513 194.3 511 212 507.8C229.7 504.7 247.3 500.3 265 509.5C282.7 518.7 300.3 541.3 318 545C335.7 548.7 353.3 533.3 371 533.8C388.7 534.3 406.3 550.7 423.8 548.3C441.3 546 458.7 525 476.2 518.2C493.7 511.3 511.3 518.7 529 527C546.7 535.3 564.3 544.7 582 542.7C599.7 540.7 617.3 527.3 635 528.3C652.7 529.3 670.3 544.7 688 548.7C705.7 552.7 723.3 545.3 741 536C758.7 526.7 776.3 515.3 794 518.5C811.7 521.7 829.3 539.3 847 544.7C864.7 550 882.3 543 891.2 539.5L900 536L900 601L891.2 601C882.3 601 864.7 601 847 601C829.3 601 811.7 601 794 601C776.3 601 758.7 601 741 601C723.3 601 705.7 601 688 601C670.3 601 652.7 601 635 601C617.3 601 599.7 601 582 601C564.3 601 546.7 601 529 601C511.3 601 493.7 601 476.2 601C458.7 601 441.3 601 423.8 601C406.3 601 388.7 601 371 601C353.3 601 335.7 601 318 601C300.3 601 282.7 601 265 601C247.3 601 229.7 601 212 601C194.3 601 176.7 601 159 601C141.3 601 123.7 601 106 601C88.3 601 70.7 601 53 601C35.3 601 17.7 601 8.8 601L0 601Z" fill="#cccccc"></path></svg>