<svg id="visual" viewBox="0 0 900 600" width="900" height="600" xmlns="http://www.w3.org/2000/svg" xmlns:xlink="http://www.w3.org/1999/xlink" version="1.1"><rect x="0" y="0" width="900" height="600" fill="#FFFFFF"></rect><path d="M0 346L11.5 342.8C23 339.7 46 333.3 69 344.3C92 355.3 115 383.7 138.2 411.8C161.3 440 184.7 468 207.8 485C231 502 254 508 277 510.2C300 512.3 323 510.7 346 487.3C369 464 392 419 415.2 401.3C438.3 383.7 461.7 393.3 484.8 419.3C508 445.3 531 487.7 554 501.3C577 515 600 500 623 484.5C646 469 669 453 692.2 452.3C715.3 451.7 738.7 466.3 761.8 465.2C785 464 808 447 831 440.3C854 433.7 877 437.3 888.5 439.2L900 441L900 601L888.5 601C877 601 854 601 831 601C808 601 785 601 761.8 601C738.7 601 715.3 601 692.2 601C669 601 646 601 623 601C600 601 577 601 554 601C531 601 508 601 484.8 601C461.7 601 438.3 601 415.2 601C392 601 369 601 346 601C323 601 300 601 277 601C254 601 231 601 207.8 601C184.7 601 161.3 601 138.2 601C115 601 92 601 69 601C46 601 23 601 11.5 601L0 601Z" fill="#fa7268"></path><path d="M0 444L11.5 426.3C23 408.7 46 373.3 69 384.7C92 396 115 454 138.2 446.7C161.3 439.3 184.7 366.7 207.8 349.2C231 331.7 254 369.3 277 408.5C300 447.7 323 488.3 346 491.2C369 494 392 459 415.2 442.2C438.3 425.3 461.7 426.7 484.8 443.8C508 461 531 494 554 481.3C577 468.7 600 410.3 623 378C646 345.7 669 339.3 692.2 343.8C715.3 348.3 738.7 363.7 761.8 364.3C785 365 808 351 831 353.2C854 355.3 877 373.7 888.5 382.8L900 392L900 601L888.5 601C877 601 854 601 831 601C808 601 785 601 761.8 601C738.7 601 715.3 601 692.2 601C669 601 646 601 623 601C600 601 577 601 554 601C531 601 508 601 484.8 601C461.7 601 438.3 601 415.2 601C392 601 369 601 346 601C323 601 300 601 277 601C254 601 231 601 207.8 601C184.7 601 161.3 601 138.2 601C115 601 92 601 69 601C46 601 23 601 11.5 601L0 601Z" fill="#f56a67"></path><path d="M0 511L11.5 510.7C23 510.3 46 509.7 69 506.3C92 503 115 497 138.2 482.3C161.3 467.7 184.7 444.3 207.8 439.5C231 434.7 254 448.3 277 458.3C300 468.3 323 474.7 346 459C369 443.3 392 405.7 415.2 413C438.3 420.3 461.7 472.7 484.8 498.3C508 524 531 523 554 516.7C577 510.3 600 498.7 623 495.5C646 492.3 669 497.7 692.2 476.5C715.3 455.3 738.7 407.7 761.8 389.7C785 371.7 808 383.3 831 377.7C854 372 877 349 888.5 337.5L900 326L900 601L888.5 601C877 601 854 601 831 601C808 601 785 601 761.8 601C738.7 601 715.3 601 692.2 601C669 601 646 601 623 601C600 601 577 601 554 601C531 601 508 601 484.8 601C461.7 601 438.3 601 415.2 601C392 601 369 601 346 601C323 601 300 601 277 601C254 601 231 601 207.8 601C184.7 601 161.3 601 138.2 601C115 601 92 601 69 601C46 601 23 601 11.5 601L0 601Z" fill="#f06167"></path><path d="M0 360L11.5 377.7C23 395.3 46 430.7 69 431.8C92 433 115 400 138.2 395.8C161.3 391.7 184.7 416.3 207.8 417C231 417.7 254 394.3 277 377.5C300 360.7 323 350.3 346 362.2C369 374 392 408 415.2 443C438.3 478 461.7 514 484.8 517.5C508 521 531 492 554 469.7C577 447.3 600 431.7 623 414.5C646 397.3 669 378.7 692.2 394.7C715.3 410.7 738.7 461.3 761.8 463.8C785 466.3 808 420.7 831 408.5C854 396.3 877 417.7 888.5 428.3L900 439L900 601L888.5 601C877 601 854 601 831 601C808 601 785 601 761.8 601C738.7 601 715.3 601 692.2 601C669 601 646 601 623 601C600 601 577 601 554 601C531 601 508 601 484.8 601C461.7 601 438.3 601 415.2 601C392 601 369 601 346 601C323 601 300 601 277 601C254 601 231 601 207.8 601C184.7 601 161.3 601 138.2 601C115 601 92 601 69 601C46 601 23 601 11.5 601L0 601Z" fill="#eb5967"></path><path d="M0 447L11.5 448.7C23 450.3 46 453.7 69 445C92 436.3 115 415.7 138.2 420.8C161.3 426 184.7 457 207.8 460.7C231 464.3 254 440.7 277 447C300 453.3 323 489.7 346 503.8C369 518 392 510 415.2 498.7C438.3 487.3 461.7 472.7 484.8 470.2C508 467.7 531 477.3 554 481.7C577 486 600 485 623 469.2C646 453.3 669 422.7 692.2 424.7C715.3 426.7 738.7 461.3 761.8 459.3C785 457.3 808 418.7 831 414.5C854 410.3 877 440.7 888.5 455.8L900 471L900 601L888.5 601C877 601 854 601 831 601C808 601 785 601 761.8 601C738.7 601 715.3 601 692.2 601C669 601 646 601 623 601C600 601 577 601 554 601C531 601 508 601 484.8 601C461.7 601 438.3 601 415.2 601C392 601 369 601 346 601C323 601 300 601 277 601C254 601 231 601 207.8 601C184.7 601 161.3 601 138.2 601C115 601 92 601 69 601C46 601 23 601 11.5 601L0 601Z" fill="#e65067"></path><path d="M0 438L11.5 451.5C23 465 46 492 69 494.2C92 496.3 115 473.7 138.2 465.8C161.3 458 184.7 465 207.8 472.2C231 479.3 254 486.7 277 487.7C300 488.7 323 483.3 346 493.5C369 503.7 392 529.3 415.2 533.3C438.3 537.3 461.7 519.7 484.8 495.8C508 472 531 442 554 447C577 452 600 492 623 504C646 516 669 500 692.2 496C715.3 492 738.7 500 761.8 509.5C785 519 808 530 831 529.7C854 529.3 877 517.7 888.5 511.8L900 506L900 601L888.5 601C877 601 854 601 831 601C808 601 785 601 761.8 601C738.7 601 715.3 601 692.2 601C669 601 646 601 623 601C600 601 577 601 554 601C531 601 508 601 484.8 601C461.7 601 438.3 601 415.2 601C392 601 369 601 346 601C323 601 300 601 277 601C254 601 231 601 207.8 601C184.7 601 161.3 601 138.2 601C115 601 92 601 69 601C46 601 23 601 11.5 601L0 601Z" fill="#e04867"></path><path d="M0 537L11.5 533.3C23 529.7 46 522.3 69 514.3C92 506.3 115 497.7 138.2 489.2C161.3 480.7 184.7 472.3 207.8 477.2C231 482 254 500 277 514.7C300 529.3 323 540.7 346 541.2C369 541.7 392 531.3 415.2 522.2C438.3 513 461.7 505 484.8 500.3C508 495.7 531 494.3 554 497.7C577 501 600 509 623 508.5C646 508 669 499 692.2 496.8C715.3 494.7 738.7 499.3 761.8 496C785 492.7 808 481.3 831 474.3C854 467.3 877 464.7 888.5 463.3L900 462L900 601L888.5 601C877 601 854 601 831 601C808 601 785 601 761.8 601C738.7 601 715.3 601 692.2 601C669 601 646 601 623 601C600 601 577 601 554 601C531 601 508 601 484.8 601C461.7 601 438.3 601 415.2 601C392 601 369 601 346 601C323 601 300 601 277 601C254 601 231 601 207.8 601C184.7 601 161.3 601 138.2 601C115 601 92 601 69 601C46 601 23 601 11.5 601L0 601Z" fill="#da3f67"></path><path d="M0 561L11.5 549.8C23 538.7 46 516.3 69 515C92 513.7 115 533.3 138.2 529.7C161.3 526 184.7 499 207.8 492C231 485 254 498 277 512.8C300 527.7 323 544.3 346 550C369 555.7 392 550.3 415.2 543.8C438.3 537.3 461.7 529.7 484.8 518C508 506.3 531 490.7 554 497.8C577 505 600 535 623 538.8C646 542.7 669 520.3 692.2 506.2C715.3 492 738.7 486 761.8 492.7C785 499.3 808 518.7 831 518.8C854 519 877 500 888.5 490.5L900 481L900 601L888.5 601C877 601 854 601 831 601C808 601 785 601 761.8 601C738.7 601 715.3 601 692.2 601C669 601 646 601 623 601C600 601 577 601 554 601C531 601 508 601 484.8 601C461.7 601 438.3 601 415.2 601C392 601 369 601 346 601C323 601 300 601 277 601C254 601 231 601 207.8 601C184.7 601 161.3 601 138.2 601C115 601 92 601 69 601C46 601 23 601 11.5 601L0 601Z" fill="#d43667"></path><path d="M0 573L11.5 567.7C23 562.3 46 551.7 69 547C92 542.3 115 543.7 138.2 546.2C161.3 548.7 184.7 552.3 207.8 556.7C231 561 254 566 277 557.5C300 549 323 527 346 522.2C369 517.3 392 529.7 415.2 537C438.3 544.3 461.7 546.7 484.8 549.7C508 552.7 531 556.3 554 551C577 545.7 600 531.3 623 522C646 512.7 669 508.3 692.2 519C715.3 529.7 738.7 555.3 761.8 566.7C785 578 808 575 831 562.2C854 549.3 877 526.7 888.5 515.3L900 504L900 601L888.5 601C877 601 854 601 831 601C808 601 785 601 761.8 601C738.7 601 715.3 601 692.2 601C669 601 646 601 623 601C600 601 577 601 554 601C531 601 508 601 484.8 601C461.7 601 438.3 601 415.2 601C392 601 369 601 346 601C323 601 300 601 277 601C254 601 231 601 207.8 601C184.7 601 161.3 601 138.2 601C115 601 92 601 69 601C46 601 23 601 11.5 601L0 601Z" fill="#cd2d68"></path><path d="M0 549L11.5 548.3C23 547.7 46 546.3 69 544.7C92 543 115 541 138.2 546.3C161.3 551.7 184.7 564.3 207.8 572.3C231 580.3 254 583.7 277 582.8C300 582 323 577 346 569.8C369 562.7 392 553.3 415.2 549C438.3 544.7 461.7 545.3 484.8 549.8C508 554.3 531 562.7 554 562.8C577 563 600 555 623 555.8C646 556.7 669 566.3 692.2 567.7C715.3 569 738.7 562 761.8 557.8C785 553.7 808 552.3 831 551.2C854 550 877 549 888.5 548.5L900 548L900 601L888.5 601C877 601 854 601 831 601C808 601 785 601 761.8 601C738.7 601 715.3 601 692.2 601C669 601 646 601 623 601C600 601 577 601 554 601C531 601 508 601 484.8 601C461.7 601 438.3 601 415.2 601C392 601 369 601 346 601C323 601 300 601 277 601C254 601 231 601 207.8 601C184.7 601 161.3 601 138.2 601C115 601 92 601 69 601C46 601 23 601 11.5 601L0 601Z" fill="#c62368"></path></svg>